<?xml version="1.0" encoding="UTF-8"?>
<svg width="80px" height="94px" viewBox="0 0 80 94" version="1.1" xmlns="http://www.w3.org/2000/svg" xmlns:xlink="http://www.w3.org/1999/xlink">
    <!-- Generator: Sketch 48.2 (47327) - http://www.bohemiancoding.com/sketch -->
    <title>checked</title>
    <desc>Created with Sketch.</desc>
    <defs></defs>
    <g id="Artboard-Copy-5" stroke="none" stroke-width="1" fill="none" fill-rule="evenodd" transform="translate(-62.000000, -541.000000)">
        <g id="checked" transform="translate(62.000000, 541.000000)" fill="#FFFFFF">
            <path d="M79.344,72.983 C78.951,67.006 79.061,60.52 79.059,54.155 C79.19,41.278 78.914,28.811 78.201,16.78 C77.437,15.831 77.181,14.378 76.488,13.356 C75.845,12.288 75.492,10.928 74.207,10.505 C72.187,10.384 70.51,10.608 68.789,10.79 C67.684,10.64 67.394,11.3 66.217,11.075 C65.684,11.491 64.328,11.085 63.936,11.645 C60.543,11.778 57.034,12.963 53.954,12.502 C53.811,9.039 54.85,5.336 53.669,2.516 C51.976,0.787 47.866,0.78 45.681,0.233 C42.747,-0.501 39.294,0.788 36.55,0.233 C36.185,0.249 36.155,0.598 35.693,0.518 C34.031,0.567 32.914,1.163 31.986,1.946 C31.521,3.858 31.316,6.032 31.414,8.507 C30.789,9.025 31.365,10.741 30.846,11.359 C30.698,12.451 30.51,13.5 29.705,13.929 C22.643,12.687 14.32,12.476 7.166,12.786 C5.539,14.204 3.488,15.198 2.312,17.065 C1.503,21.961 1.726,27.887 1.461,33.329 C0.855,49.844 1.443,67.549 0.604,83.826 C0.846,88.144 1.37,92.185 4.309,93.81 C12.623,94.201 22.539,93.798 31.127,93.523 C39.822,92.9 48.338,92.095 57.375,91.812 C60.545,92.031 64.844,92.441 67.932,91.812 C69.86,91.839 71.565,91.642 73.067,91.244 C75.081,91.351 76.895,91.265 77.915,90.385 C78.927,88.258 79.065,85.26 79.06,82.114 C79.619,79.535 79.227,76.004 79.344,72.983 Z M26.279,18.494 C28.701,18.348 30.875,17.953 33.125,17.637 C35.293,16.762 35.707,14.131 36.264,11.645 C36.479,9.622 35.91,8.387 35.977,6.51 C37.266,5.326 40.385,5.973 42.256,5.369 C44.91,5.469 47.555,5.586 49.67,6.222 C50.201,8.937 49.274,12.156 49.387,15.353 C50.03,16.9 52.875,16.24 54.522,16.779 C56.643,16.943 59.43,16.437 61.084,17.064 C60.893,20.257 60.961,22.103 61.084,25.339 C58.646,25.833 54.4,25.775 51.953,25.339 C49.99,25.845 47.217,25.546 44.822,25.624 C41.205,26.192 36.619,25.788 32.556,25.909 C31.296,25.983 30.345,26.364 28.845,26.194 C27.599,25.975 26.202,26.545 25.706,26.194 C26.564,24.295 26.205,21.178 26.279,18.494 Z M73.637,22.485 C73.018,42.968 72.754,65.038 73.352,85.823 C63.131,86.54 53.168,87.509 42.256,87.534 C41.264,87.306 41.158,87.96 40.258,87.819 C34.406,87.858 28.154,87.77 21.998,87.819 C20.16,87.837 18.266,87.924 16.578,87.819 C15.484,87.872 16.474,87.587 16.291,86.964 C16.703,86.9 16.391,86.11 16.863,86.109 C16.857,85.213 17.804,84.517 17.148,83.828 C14.849,84.193 14.701,86.703 13.155,87.82 L9.73,87.82 C10.418,85.656 11.197,83.582 12.013,81.545 C12.279,80.385 13.081,79.762 13.155,78.408 C13.597,77.75 14.619,76.654 14.011,75.838 C12.503,75.57 12.405,76.709 11.728,77.266 C11.265,77.944 10.703,78.522 10.3,79.26 C9.392,80.635 8.415,81.942 7.732,83.543 C6.636,81.959 8.584,80.977 8.302,79.26 C8.962,78.115 9.072,76.416 9.73,75.268 C10.228,72.151 11.408,69.719 12.013,66.707 C11.31,65.357 9.792,67.062 9.447,66.707 C9.705,63.926 10.754,61.93 11.155,59.291 C11.709,58.322 11.746,56.836 12.299,55.867 C12.443,54.492 13.584,54.113 13.44,52.443 C13.292,51.734 12.745,51.427 12.299,51.017 C9.25,50.537 8.699,52.552 8.02,54.443 C7.365,53.859 7.914,52.072 7.733,51.017 C9.483,46.396 10.678,41.218 13.156,37.324 C13.069,36.742 12.384,36.765 12.3,36.183 C9.794,35.958 9.206,37.654 8.591,39.32 C7.845,38.83 8.993,37.844 8.591,36.754 C8.421,35.539 8.796,34.865 8.876,33.9 C8.749,31.681 9.384,30.222 9.161,27.906 C9.989,27.691 8.899,25.556 9.731,25.342 C9.676,24.24 9.719,23.238 10.016,22.486 C10.041,20.517 10.69,19.166 10.873,17.353 C12.592,17.361 14.385,17.441 15.723,17.066 C19.508,19.365 17.911,27.052 20.858,30.191 C35.614,31.082 51.805,30.937 65.649,29.334 C67.862,25.73 64.835,21.4 64.792,17.354 C67.386,16.715 71.044,15.231 73.353,16.782 C74.063,18.032 74.152,20.899 73.637,22.485 Z M42.824,16.78 C44.449,16.026 45.81,15.01 46.248,13.073 C46.471,11.518 45.81,10.848 45.393,9.934 C43.52,8.858 40.163,9.354 39.116,10.789 C38.985,11.799 38.481,12.435 38.548,13.641 C39.354,15.309 40.986,16.147 42.824,16.78 Z M37.119,23.912 C40.75,23.742 43.299,22.484 47.389,22.773 C48.899,23.07 50.284,23.492 51.953,23.628 C53.205,23.862 55.375,23.989 55.379,22.2 C55.867,22.081 55.318,21.831 55.379,21.343 C54.811,21.339 55.016,20.566 54.236,20.775 C53.875,20.089 52.718,20.199 52.236,19.632 C46.756,19.38 42.578,20.431 37.406,20.487 C36.14,20.419 35.326,19.903 33.98,19.917 C33.474,20.567 34.322,21.688 34.835,22.2 C35.397,22.975 35.943,23.756 37.119,23.912 Z" id="Shape"></path>
        </g>
    </g>
</svg>