<?xml version="1.0" encoding="UTF-8"?>
<svg width="110px" height="98px" viewBox="0 0 110 98" version="1.1" xmlns="http://www.w3.org/2000/svg" xmlns:xlink="http://www.w3.org/1999/xlink">
    <!-- Generator: Sketch 48.2 (47327) - http://www.bohemiancoding.com/sketch -->
    <title>book-bag</title>
    <desc>Created with Sketch.</desc>
    <defs></defs>
    <g id="Artboard-Copy-5" stroke="none" stroke-width="1" fill="none" fill-rule="evenodd" transform="translate(-381.000000, -540.000000)">
        <g id="book-bag" transform="translate(380.000000, 540.000000)" fill="#FFFFFF">
            <path d="M110.011,50.691 C109.242,44.137 108.737,37.324 108.504,30.233 C107.951,27.478 107.072,25.046 106.701,22.11 C106.063,21.146 106.128,19.478 105.196,18.802 C104.858,17.434 103.61,16.979 102.792,16.093 C100.533,15.286 96.706,15.322 94.064,15.792 L82.331,15.792 C80.615,15.886 78.534,16.513 77.217,16.093 C76.332,13.97 76.674,10.621 76.614,7.669 C75.976,5.602 75.411,3.458 74.206,1.953 C71.098,0.41 64.901,0.485 60.671,1.05 C56.453,1.146 52.519,1.522 48.034,1.353 C46.636,1.859 44.277,1.404 42.921,1.954 C42.601,2.637 41.028,2.068 40.214,2.254 C39.41,2.453 38.335,2.381 37.806,2.858 C34.285,3.348 31.72,4.791 30.284,7.37 C29.842,8.932 30.005,11.103 29.98,13.087 C28.038,11.956 24.999,12.512 24.867,14.893 C25.039,15.626 25.127,16.439 26.071,16.394 C26.145,17.328 28.547,15.925 28.18,17.3 C23.484,18.033 18.193,16.89 12.833,17.3 C10.706,17.879 8.182,18.062 6.217,18.804 C4.231,20.027 2.665,21.668 1.403,23.616 C1.091,29.759 0.545,36.336 1.701,41.667 L1.701,48.587 C2.873,52.769 2.082,57.054 2.607,61.824 C3.117,62.415 3.53,63.107 4.407,63.327 C5.185,63.756 6.112,64.033 6.216,65.132 C4.821,72.726 6.239,81.421 5.914,89.804 C5.579,92.098 4.852,94.802 6.216,96.421 C9.23,97.719 14.715,96.542 18.249,97.321 C19.68,97.147 21.024,96.888 22.759,97.022 C26.361,96.112 30.152,95.386 34.194,94.917 C55.55,95.218 76.372,96.059 98.273,95.819 C100.865,95.3 103.818,95.145 105.494,93.711 C105.91,90.92 106.41,88.206 106.697,85.288 C106.125,81.146 106.503,76.055 106.397,71.449 C106.6,66.793 105.317,62.154 106.093,57.912 C106.402,57.619 106.703,57.316 106.995,57.01 C107.743,57.052 108.459,57.065 108.499,56.408 C109.505,56.007 110.374,55.473 110.907,54.601 C111.374,52.538 109.857,52.447 110.011,50.691 Z M35.701,9.476 C37.892,8.156 42.174,8.93 44.426,7.669 C53.672,8.382 61.038,5.647 69.698,6.765 C70.409,8.119 71.007,10.99 70.299,12.785 C68.63,12.677 67.278,12.207 66.087,13.086 C64.773,13.375 65.084,15.291 64.581,16.393 C58.252,16.282 52.234,16.483 46.232,16.695 C45.241,16.709 44.731,17.205 43.522,16.997 C42.803,16.812 41.343,17.374 41.116,16.695 C39.957,16.754 40.795,14.809 40.215,14.29 C39.017,13.78 37.04,14.054 35.401,13.987 C35.539,12.522 35.085,10.462 35.701,9.476 Z M7.722,57.009 C7.854,56.571 7.986,57.038 8.325,57.009 C8.25,57.388 7.725,57.312 7.722,57.009 Z M18.553,91.907 C17.027,91.888 16.06,92.424 14.343,92.208 C13.064,91.978 10.78,92.764 10.428,91.606 C10.039,90.308 11.052,90.421 11.633,90.101 C11.983,89.552 12.42,89.083 12.835,88.597 L12.835,84.687 C15.625,84.906 17.272,86.265 18.553,87.996 L18.553,91.907 Z M85.039,83.784 C85.043,85.492 84.831,86.982 84.44,88.297 C82.796,88.926 81.546,88.196 79.625,88.297 C77.599,88.576 75.506,88.786 73.609,89.197 L67.292,89.197 C66.248,88.959 66.135,89.648 65.185,89.502 L39.61,89.502 C37.776,89.868 35.522,89.825 33.294,89.803 C31.747,90.258 29.394,89.916 28.181,90.705 C26.365,90.484 24.441,91.454 23.366,91.004 C23.516,89.032 23.694,88.093 23.067,86.49 C21.892,83.355 19.143,81.787 16.446,80.173 C15.348,79.97 14.26,79.756 12.835,79.873 C12.912,73.88 12.615,68.264 11.633,63.326 C16.955,62.629 23.561,63.222 29.385,63.025 C30.426,62.784 30.54,63.472 31.491,63.326 C35.273,63.355 39.262,63.176 42.621,63.625 C43.305,64.55 43.142,66.314 44.124,66.936 C44.82,67.844 45.625,68.647 46.531,69.343 C50.597,69.965 54.331,69.122 58.566,69.644 C61.711,69.38 64.49,68.752 66.387,67.241 C67.981,66.424 68.464,64.503 69.697,63.327 C71.259,62.885 73.426,63.048 75.414,63.026 C82.419,61.913 89.122,60.491 97.074,60.319 C97.558,60.405 97.59,60.034 97.976,60.016 L100.083,60.016 C101.043,62.065 100.626,65.492 100.983,68.139 C101.162,70.869 101.371,73.574 101.587,76.264 C100.665,76.555 98.23,76.102 96.773,75.964 C95.351,76.395 94.322,76.367 92.863,76.864 C92.546,76.974 92.18,77.379 91.959,77.468 C91.464,77.664 90.966,77.531 90.455,77.767 C89.619,78.156 88.885,79.11 87.749,79.573 C86.763,80.894 86.336,82.776 85.039,83.784 Z M12.535,55.503 C12.777,55.663 13.024,55.818 13.439,55.804 C13.735,57.447 12.254,57.914 11.632,57.009 C11.727,56.298 12.677,56.447 12.535,55.503 Z M29.683,55.503 C30.804,55.733 29.848,56.931 28.779,56.708 C28.515,55.743 29.772,56.294 29.683,55.503 Z M45.329,60.318 C45.342,58.122 46.803,57.38 47.134,55.503 C49.35,55.718 50.862,55.222 52.549,54.901 C56.368,55.733 58.876,53.938 62.776,54.002 C62.961,55.724 64.04,56.549 64.581,57.911 C64.784,59.616 64.307,60.643 63.982,61.822 C59.9,63.159 55.323,63.996 50.442,64.53 C49.051,64.314 48.455,63.309 47.736,62.423 C46.699,61.954 45.635,61.515 45.329,60.318 Z M100.984,87.996 C99.447,88.808 97.656,88.041 95.87,87.996 C93.569,87.936 91.17,88.548 89.252,87.996 C89.205,84.939 91.023,83.752 92.259,81.978 C95.019,81.488 98.464,80.558 101.587,81.376 C101.583,83.784 101.747,86.35 100.984,87.996 Z M78.422,54.301 L72.404,54.301 C72.018,54.318 71.987,54.684 71.501,54.601 C70.13,54.636 70.273,56.181 69.095,56.408 C68.782,53.913 68.232,51.652 67.291,49.787 C65.808,48.563 63.463,48.201 60.972,47.984 C57.612,48.335 54.832,49.265 51.646,49.787 C49.05,49.978 47.352,49.266 44.725,49.488 C43.448,49.914 42.304,50.474 41.416,51.293 C41.257,53.14 41.758,55.65 41.115,57.01 L39.012,57.01 C37.822,57.393 38.281,56.133 37.504,56.108 C36.466,56.471 35.247,56.657 33.897,56.71 C32.86,56.238 32.596,55.001 32.089,54.004 C30.714,53.732 30.383,54.502 29.383,54.603 C29.454,53.329 29.359,52.22 28.479,51.896 C25.56,52.49 24.835,55.275 21.859,55.806 C21.961,55.105 22.168,54.511 22.761,54.303 C21.521,53.679 21.49,52.884 22.162,51.597 C20.911,50.639 20.361,52.463 19.154,52.498 C19.783,51.726 19.964,50.498 20.354,49.489 C20.286,49.059 19.86,48.98 19.755,48.587 C17.164,48.301 16.939,50.383 14.941,50.692 C15.22,48.809 13.804,48.618 13.132,47.682 C13.47,46.411 14.093,45.431 14.341,44.072 C14.141,42.732 12.469,43.528 11.933,43.171 C12.318,41.964 13.462,40.213 12.533,38.657 C11.516,38.544 11.25,39.18 10.728,39.559 C10.061,39.43 9.976,41.368 9.526,40.463 C9.491,38.721 10.844,38.373 11.031,36.853 C11.981,36.337 12.752,34.389 11.631,33.543 C9.862,33.779 9.235,35.158 8.021,35.948 C8.052,36.314 7.584,36.136 8.021,35.948 C8.632,34.256 9.392,32.708 10.127,31.136 C10.884,29.824 12.579,28.402 11.631,26.321 C10.312,26.006 10.645,27.34 9.526,27.224 C9.491,26.857 9.436,26.515 8.924,26.624 C7.606,26.309 7.934,27.64 6.816,27.524 L6.816,24.817 C15.309,22.129 27.544,24.802 37.202,23.614 L42.316,23.614 C49.049,23.124 55.981,22.838 63.076,22.71 C71.305,22.213 79.893,22.074 88.649,22.109 C92.408,21.58 95.578,22.083 99.78,21.808 C101.084,24.217 101.283,27.727 102.185,30.534 C101.762,38.279 103.789,43.572 103.689,50.991 C95.588,52.417 86.466,52.82 78.422,54.301 Z" id="Shape"></path>
        </g>
    </g>
</svg>